<?xml version="1.0" encoding="utf-8"?><svg preserveAspectRatio="none slice" width="532" height="469" viewBox="0 0 532 469" xmlns="http://www.w3.org/2000/svg" xmlns:xlink="http://www.w3.org/1999/xlink"><view id="emp_icon01" viewBox="0 213.98 128 126.59"/><svg width="128" height="126.59" viewBox="-4 -4 128 126.59" y="213.98" xmlns="http://www.w3.org/2000/svg"><g fill="#4a506b"><path d="M85.942 76.479v34.2H7.903V7.888h78.031v39.866l7.9-7.9V3.943L89.888-.002H3.957L0 3.943v110.7l3.957 3.94h85.935l3.946-3.94V68.586z"/><path d="M21.598 19.205h50.657v7.903H21.598zM21.598 34.465h50.657v7.909H21.598zM21.596 49.731h50.656v7.891H21.596zM49.784 91.096h22.472v7.897H49.784zM120 36.845l-8.779-8.788h-5.588l-11.795 11.8-7.9 7.9-21.606 21.612-1.11 2.166-1.674 10.448 4.524 4.533 10.449-1.673 2.174-1.121 7.246-7.243 7.9-7.891 26.162-26.149zM70.2 77.854l.608-3.809 37.6-37.6 3.2 3.2-37.6 37.6z"/></g></svg><view id="emp_icon02" viewBox="403.06 0 128 127.99"/><svg width="128" height="127.99" viewBox="-4 -4 128 127.99" x="403.06" xmlns="http://www.w3.org/2000/svg"><path d="M116.438 87.217l-16.365-16.37a12.093 12.093 0 00-8.567-3.551 12.1 12.1 0 00-8.568 3.563l-9.2 9.2L39.93 46.247l9.2-9.2a12.134 12.134 0 003.549-8.565A12.124 12.124 0 0049.13 19.9L32.771 3.547A12.087 12.087 0 0024.203.002a12.062 12.062 0 00-8.583 3.556l-7.119 7.137A24.751 24.751 0 001.55 24.268L.312 31.926A24.943 24.943 0 000 35.864a24.864 24.864 0 007.264 17.541l59.322 59.318a24.784 24.784 0 0017.526 7.264 27.592 27.592 0 003.912-.3l-.561-3.8.6 3.794 7.653-1.234a25 25 0 0013.591-6.952l7.131-7.142A12.156 12.156 0 00120 95.782a12.053 12.053 0 00-3.562-8.565zm-5.437 11.706l-7.148 7.125a17.071 17.071 0 01-9.363 4.794l-7.64 1.226v.006a18.924 18.924 0 01-2.738.2 17.126 17.126 0 01-12.09-4.991L12.716 47.96a17.129 17.129 0 01-5.022-12.1 17.25 17.25 0 01.222-2.7l1.238-7.669a17.028 17.028 0 014.789-9.351l7.145-7.154a4.365 4.365 0 013.117-1.3 4.39 4.39 0 013.117 1.3L43.7 25.347a4.418 4.418 0 011.278 3.134 4.4 4.4 0 01-1.292 3.129l-11.92 11.919v5.437l39.25 39.263h5.436l11.933-11.93a4.387 4.387 0 013.118-1.3 4.41 4.41 0 013.128 1.3l16.367 16.366a4.374 4.374 0 011.29 3.117 4.468 4.468 0 01-1.287 3.141z" fill="#4a506b"/></svg><view id="emp_icon03" viewBox="128 0 147.06 128"/><svg width="147.06" height="128" viewBox="-4 -4 147.06 128" x="128" xmlns="http://www.w3.org/2000/svg"><path d="M0 0v80.971h.005v14.08H50.84v15.8H36.974v9.145h65.1v-9.145H88.213v-15.8h50.836v-14.08h.014V-.005zm9.14 9.14h120.768v62.676H9.14zm50.865 101.715V95.049h19.044v15.806zm69.9-24.952H9.147v-4.932h120.761z" fill="#4a506b"/></svg><view id="h4_ico" viewBox="0 0 128 213.98"/><svg width="128" height="213.98" viewBox="-4 -4 128 213.98" xmlns="http://www.w3.org/2000/svg"><path d="M14.302 150.661l36.884-63.874a36.877 36.877 0 0150.371-13.493 36.881 36.881 0 0113.5 50.372l-36.875 63.875a36.887 36.887 0 01-50.38 13.5 36.894 36.894 0 01-13.5-50.38z" fill="#fc9fb5" fill-rule="evenodd"/><path d="M78.355 146.73a41.392 41.392 0 01-35.906-20.688L5.575 62.159A41.077 41.077 0 010 41.472 41.4 41.4 0 0120.727 5.58 40.921 40.921 0 0141.409 0a41.482 41.482 0 0135.932 20.727l36.874 63.866-3.947 2.29-3.939 2.271-36.866-63.866A32.419 32.419 0 0041.409 9.106a31.961 31.961 0 00-16.12 4.338A32.337 32.337 0 009.105 41.472a32.1 32.1 0 004.357 16.125l36.884 63.88a32.33 32.33 0 0028.009 16.165 32.6 32.6 0 0016.13-4.335 32.276 32.276 0 0016.156-28.028 32.2 32.2 0 00-4.312-16.125l3.939-2.271 3.947-2.273a41.368 41.368 0 015.558 20.669 41.473 41.473 0 01-20.745 35.928 41.309 41.309 0 01-20.567 5.523h-.106z" fill="#e63c64" opacity=".5"/></svg><view id="point_icon01" viewBox="275.06 0 128 128.01"/><svg width="128" height="128.01" viewBox="-4 -4 128 128.01" x="275.06" xmlns="http://www.w3.org/2000/svg"><path d="M105 0H15A15.027 15.027 0 000 15v67.5a15.025 15.025 0 0015 15h22.5v19.694a2.815 2.815 0 002.813 2.812 3.307 3.307 0 001.667-.547L71.25 97.5H105a15.024 15.024 0 0015-15V15a15.026 15.026 0 00-15-15zM60 78.75a7.5 7.5 0 01-7.5-7.5 7.5 7.5 0 017.5-7.5 7.5 7.5 0 017.5 7.5 7.5 7.5 0 01-7.5 7.5zm8.952-55.873l-3 30a3.822 3.822 0 01-3.723 3.373h-4.453a3.823 3.823 0 01-3.724-3.373l-3-30c-.006-.1-.02-.263-.02-.364a3.774 3.774 0 013.745-3.763h10.455a3.754 3.754 0 013.744 3.75 3.661 3.661 0 01-.024.377z" fill="#f9d0da"/><path d="M60 63.75a7.5 7.5 0 00-7.5 7.5 7.5 7.5 0 007.5 7.5 7.5 7.5 0 007.5-7.5 7.5 7.5 0 00-7.5-7.5zm5.228-45H54.773a3.774 3.774 0 00-3.745 3.763c0 .1.014.264.02.364l3 30a3.823 3.823 0 003.724 3.373h4.453a3.822 3.822 0 003.723-3.373l3-30a3.661 3.661 0 00.02-.377 3.754 3.754 0 00-3.74-3.75z" fill="#eb6383"/></svg><view id="point_icon02" viewBox="403.06 127.99 128 128"/><svg width="128" height="128" viewBox="-4 -4 128 128" x="403.06" y="127.99" xmlns="http://www.w3.org/2000/svg"><path d="M107.143 0H12.857A12.861 12.861 0 00.002 12.858v94.285A12.86 12.86 0 0012.859 120h94.286a12.86 12.86 0 0012.857-12.857V12.858A12.861 12.861 0 00107.143 0zM60.002 23.036a11.253 11.253 0 0111.25 11.25 11.253 11.253 0 01-11.25 11.25 11.253 11.253 0 01-11.25-11.25 11.253 11.253 0 0111.25-11.25zm15 68.036a3.214 3.214 0 01-3.215 3.214H48.214a3.214 3.214 0 01-3.212-3.211v-6.429a3.215 3.215 0 013.214-3.214h3.215V64.289h-3.215a3.214 3.214 0 01-3.214-3.214v-6.429a3.215 3.215 0 013.214-3.214h17.143a3.215 3.215 0 013.214 3.214v26.786h3.214a3.215 3.215 0 013.215 3.214z" fill="#d2d3da"/><path d="M60.002 45.536a11.253 11.253 0 0011.25-11.25 11.253 11.253 0 00-11.25-11.25 11.253 11.253 0 00-11.25 11.25 11.253 11.253 0 0011.25 11.25zm11.785 35.893h-3.214V54.643a3.215 3.215 0 00-3.214-3.214H48.214A3.215 3.215 0 0045 54.643v6.429a3.214 3.214 0 003.214 3.214h3.215v17.143h-3.215A3.215 3.215 0 0045 84.643v6.429a3.214 3.214 0 003.214 3.214h23.571a3.214 3.214 0 003.217-3.211v-6.429a3.215 3.215 0 00-3.217-3.217z" fill="#4c526d"/></svg><view id="point_icon03" viewBox="0 340.57 128 128"/><svg width="128" height="128" viewBox="-4 -4 128 128" y="340.57" xmlns="http://www.w3.org/2000/svg"><path d="M105 0H15A15.014 15.014 0 000 15v67.5a15.013 15.013 0 0015 15h22.5v19.687A2.805 2.805 0 0040.312 120a2.7 2.7 0 001.667-.564L71.25 97.5H105a15.013 15.013 0 0015-15V15a15.015 15.015 0 00-15-15zm3.75 82.5a3.76 3.76 0 01-3.75 3.75H67.5l-3 2.249-15.749 11.813V86.25h-33.75a3.76 3.76 0 01-3.75-3.75V15a3.761 3.761 0 013.75-3.75h90a3.762 3.762 0 013.75 3.75zm-22.5-50.625h-52.5a3.761 3.761 0 00-3.75 3.75v3.75a3.76 3.76 0 003.75 3.75h52.5a3.76 3.76 0 003.75-3.75v-3.75a3.762 3.762 0 00-3.75-3.754zm-22.5 22.5h-30a3.761 3.761 0 00-3.75 3.75v3.75a3.76 3.76 0 003.75 3.75h30a3.76 3.76 0 003.75-3.75v-3.75a3.762 3.762 0 00-3.75-3.754z" fill="#009fe1"/></svg><view id="point_icon04" viewBox="128 340.57 128 128"/><svg width="128" height="128" viewBox="-4 -4 128 128" x="128" y="340.57" xmlns="http://www.w3.org/2000/svg"><path d="M105 0H15A15.014 15.014 0 000 15v67.5a15.014 15.014 0 0015 15h22.5v19.687A2.813 2.813 0 0040.313 120a2.709 2.709 0 001.667-.567L71.253 97.5H105a15.01 15.01 0 0015-15V15a15.01 15.01 0 00-15-15zm3.753 82.5A3.76 3.76 0 01105 86.247H67.5l-3 2.253-15.747 11.813V86.247H15a3.759 3.759 0 01-3.747-3.747V15A3.764 3.764 0 0115 11.247h90A3.765 3.765 0 01108.753 15zm-22.5-50.627h-52.5A3.76 3.76 0 0030 35.62v3.753a3.756 3.756 0 003.753 3.747h52.5A3.75 3.75 0 0090 39.373V35.62a3.754 3.754 0 00-3.747-3.747zm-22.5 22.5h-30A3.76 3.76 0 0030 58.12v3.753a3.756 3.756 0 003.753 3.747h30a3.75 3.75 0 003.747-3.747V58.12a3.754 3.754 0 00-3.747-3.747z" fill="#535da1"/></svg></svg>