<svg xmlns="http://www.w3.org/2000/svg" viewBox="0 0 280 280">
	<path d="                M 143 115 C 141 119 134 115 130 114 C 126 113 124 111 119 113 C 119 107 125 105 128 105 C 123 101 124 93 128 86 C 134 77 143 74 151 74 C 167 73 176 82 180 88 C 185 94 192 111 190 124 C 167 123 143 137 138 146 L 132 137 L 135 133 Q 132 131 135 127 C 120 124 119 116 119 113 M 180 88 C 190 86 200 88 204 92 C 206 94 206 97 204 99 L 190 113 M 102 210 L 88 154 L 25 150 L 27 148 L 90 152 L 105 210 L 131 206 L 104 201 L 103 197 L 136 203 L 140 208 L 106 215 L 39 201 L 25 152 L 26 152 L 40 200 L 104 213 L 106 215 L 108 213 M 131 126 C 131 128 128 129 126 131 C 123 133 123 137 125 139 C 127 141 127 142 126 146 C 124 156 124 162 126 169 C 127 162 126 155 129 146 C 130 144 130 142 131 142 L 138 152 C 141 146 148 144 152 140 C 147 148 146 159 149 169 C 149 158 150 149 154 143 C 166 142 174 135 183 137 C 192 139 198 144 201 152 C 205 151 207 149 206 144 C 206 140 210 140 211 137 C 211 133 209 132 206 131 C 201 129 204 125 202 122 C 198 117 191 117 191 122 C 191 125 192 126 154 139 C 193 127 196 129 208 136 M 150 104 C 152 106 155 108 159 109 M 119 199 C 118 194 118 176 122 167 C 116 184 108 186 99 187 M 93 162 C 94 162 95 158 100 157 M 102 156 C 104 154 102 149 109 150 C 117 144 120 136 125 139 M 138 205 C 138 201 134 190 131 190 C 125 194 123 197 124 199 C 126 202 132.6667 200.6667 137 203 M 131 190 C 132 187 135 185 139 185 C 143 184 152 201 146 205 C 143 204 141 207 138 205 M 139 185 C 138 178 148 183 154 181 C 156 177 161 176 162 170 C 163 166 172 152 187 148 C 193 148 204 150 203 163 C 203 186 201 199 197 215 C 181 214 175 213 164 208 C 153 209 145 209 146 205 C 194 211 188 199 199 188 M 191 120 C 192 117 195 113 199 112 C 204 115 215 117 229 117 C 223 124 222 132 224 135 L 211 128 L 211 133 C 221 136 228 141 237 151 C 221 168 212 205 214 218 L 233 222 A 1 1 0 0 0 47 54 M 231 220 A 1 1 0 0 0 49 56 M 47 58 A 1 1 0 0 0 229 222 M 47 58 C 42 70 41 82 68 95 C 74 79 108 75 93 58 M 81 58 C 53 76 71 76 68 95 M 81 58 C 65 65 62 59 48 67 M 65 77 C 60 75 61 83 54 84 M 81 58 C 69 76 83 72 80 79 M 81 39 A 1 1 0 0 0 81 58 M 81 41 A 1 1 0 0 0 81 56 M 81 39 L 81 41 M 81 56 L 81 58 M 84 46 C 84 59 90 59 90 46 M 82 46 C 82 62 92 62 92 46 M 82 46 L 84 46 M 90 46 L 92 46 M 93 46 L 93 58 L 95 58 C 95 53 100 52 108 49 L 108 47 C 100 50 95 51 95 53 L 95 46 L 93 46 M 105 45 L 105 43 L 108 43 L 108 38 L 110 38 L 110 43 L 113 43 L 113 45 L 110 45 L 110 58 L 108 58 L 108 45 L 105 45 M 118 58 L 111 58 L 111 49 L 119 49 L 123 58 L 121 58 L 118 51 L 118 58 M 113 51 L 116 51 L 116 56 L 113 56 L 113 51 M 123 58 L 124 48 L 126 48 L 125 58 L 123 58 M 125 45 A 1 1 0 0 0 125 47 A 1 1 0 0 0 125 45 M 127 48 L 126 58 L 128 58 L 129 52 L 132 58 L 134 58 L 135 48 L 133 48 L 132 53 L 129 48 L 127 48 M 81 41 C 96 40 94 26 126 24 C 155 23 153 39 172 38 C 163 68 144 57 129 62 C 112 69 107 60 95 58 M 172 38 C 150 44 159 52 125 45 M 151 47 C 146 32 133 43 128 29 M 135 47 C 143 51 139 57 153 57 M 107 32 C 118 45 127 34 139 46 M 233 222 C 241 241 265 230 247 275 C 231 251 192 270 213 237 M 247 275 C 245 243 218 252 224 230 M 242 258 C 238 246 253 251 250 243 M 234 250 C 219 258 222 246 212 252 M 225 242 C 229 229 236 243 241 233 M 47 54 C 59 20 29 31 19 13 C 3 52 38 47 27 88 M 19 13 C 22 48 47 36 33 70 M 21 24 C 30 24 36 40 44 36 M 28 37 C 24 40 32 48 23 49 M 33 70 C 40 58 37 42 48 44 M 49 56 C 70 59 63 40 81 39 M 81 58 C 82 68 90 72 94 67
" stroke="#000" stroke-width="1" fill="none"/>
</svg>